<svg width="28" height="30" viewBox="0 0 28 30" fill="none" xmlns="http://www.w3.org/2000/svg">
<g filter="url(#filter0_d_213_697)">
<path d="M23.63 14.66L23.22 16.52C22.51 19.72 20 22 16.38 22H11.62C7.99998 22 5.48998 19.72 4.77998 16.52L4.36998 14.66C4.16998 13.75 4.70998 12.72 5.57998 12.37L6.99998 11.8L12.51 9.58999C12.99 9.39999 13.5 9.29999 14 9.29999C14.5 9.29999 15.01 9.39999 15.49 9.58999L21 11.8L22.42 12.37C23.29 12.72 23.83 13.75 23.63 14.66Z" fill="#647B64"/>
<path d="M21 8V9.44C21 9.79 20.64 10.04 20.31 9.9L16.04 8.19C14.73 7.68 13.27 7.68 11.95 8.2L7.69 9.91C7.36 10.05 7 9.8 7 9.45V8C7 6.35 8.35 5 10 5H18C19.65 5 21 6.35 21 8Z" fill="#647B64"/>
<path d="M16.5 5H11.5V3C11.5 2.45 11.95 2 12.5 2H15.5C16.05 2 16.5 2.45 16.5 3V5Z" fill="#647B64"/>
</g>
<defs>
<filter id="filter0_d_213_697" x="-2" y="0" width="32" height="32" filterUnits="userSpaceOnUse" color-interpolation-filters="sRGB">
<feFlood flood-opacity="0" result="BackgroundImageFix"/>
<feColorMatrix in="SourceAlpha" type="matrix" values="0 0 0 0 0 0 0 0 0 0 0 0 0 0 0 0 0 0 127 0" result="hardAlpha"/>
<feOffset dy="4"/>
<feGaussianBlur stdDeviation="2"/>
<feComposite in2="hardAlpha" operator="out"/>
<feColorMatrix type="matrix" values="0 0 0 0 0 0 0 0 0 0 0 0 0 0 0 0 0 0 0.25 0"/>
<feBlend mode="normal" in2="BackgroundImageFix" result="effect1_dropShadow_213_697"/>
<feBlend mode="normal" in="SourceGraphic" in2="effect1_dropShadow_213_697" result="shape"/>
</filter>
</defs>
</svg>
